<?xml version="1.0" encoding="UTF-8" standalone="no"?>
<svg width="18px" height="18px" viewBox="0 0 18 18" version="1.1" xmlns="http://www.w3.org/2000/svg" xmlns:xlink="http://www.w3.org/1999/xlink"><title>dribble</title><desc>Created with Sketch.</desc><defs></defs><g id="Page-2" stroke="none" stroke-width="1" fill="none" fill-rule="evenodd"><g id="关于我们-copy-2" transform="translate(-1362.000000, -4608.000000)" fill-rule="nonzero" fill="#7F8FAC"><g id="dribble" transform="translate(1362.000000, 4608.000000)"><path d="M9.65085488,5.08275207 C9.77386057,5.28654805 9.89394903,5.49111553 10.0116266,5.69623754 C11.8120856,4.9421466 13.523075,3.77810098 14.6150338,1.98330762 C13.9719421,1.46773006 13.2638758,1.04453936 12.4997795,0.721354099 C11.3909683,0.252379838 10.213542,0.0145897304 9.00021697,0.0145897304 C8.05354087,0.0145897304 7.1287078,0.159366134 6.24129236,0.445760599 C6.7562431,1.00791733 8.18004242,2.6460966 9.65085488,5.08275207 Z" id="Shape"></path><path d="M11.5092245,6.60638804 C11.2504352,6.73693994 10.9832317,6.86107878 10.7082168,6.97899739 C10.9580857,7.46598131 11.193055,7.9554726 11.4119916,8.44660331 C13.5161556,8.00337779 15.7270033,8.16806846 17.9898548,8.93667322 C17.9811272,7.74736103 17.7436988,6.59320023 17.2835003,5.50509894 C16.8928572,4.58151955 16.3565456,3.73947785 15.686789,2.99565747 C14.7118809,4.48508231 13.3081646,5.69876902 11.5092245,6.60638804 Z" id="Shape"></path><path d="M8.43285263,5.86420709 C6.71450989,3.00915869 5.02288028,1.26026946 5.00597965,1.24293487 C5.00597965,1.24293487 4.87101574,1.11800043 4.81245423,1.04793877 C4.01511117,1.4676336 3.2875887,2.00339067 2.64326742,2.64771193 C1.81786114,3.47311821 1.16975471,4.43447689 0.716933686,5.50509894 C0.505085183,6.00594571 0.340587377,6.5208482 0.223705461,7.04669633 C0.907855304,7.09874833 3.31529028,7.23168704 6.02956444,6.79523624 C6.84171061,6.66463611 7.72994575,6.47381095 8.62941581,6.19583061 C8.56340453,6.08285441 8.49780311,5.97214447 8.43285263,5.86420709 Z" id="Shape"></path><path d="M17.7562597,10.3848712 L17.7555605,10.3867999 C15.7424574,9.66397872 13.8111089,9.47040507 11.9753056,9.80342696 C12.0587238,10.0202661 12.1392007,10.2372016 12.2163264,10.4541854 C12.9655714,12.5621105 13.4165601,14.6790524 13.5594801,16.7543575 C14.2123119,16.370007 14.8142972,15.904408 15.3571424,15.3615869 C16.1825246,14.5361806 16.8306551,13.5748219 17.2834761,12.5041999 C17.5688821,11.8294286 17.7681938,11.1291737 17.8808325,10.4109333 C17.8485742,10.4050989 17.7645051,10.3886322 17.7562597,10.3848712 Z" id="Shape"></path><path d="M6.21650801,10.9617828 C7.40890619,10.0129851 8.67683881,9.30274897 9.99942726,8.84076639 C9.7848062,8.36791054 9.56442301,7.91711468 9.34329244,7.49088622 C8.37966751,7.80471709 7.3376873,8.05164463 6.2255008,8.22884803 C4.60258271,8.48744446 3.1031284,8.55603544 1.96962927,8.55603544 C1.01154946,8.55603544 0.314959217,8.50706943 0.0251171152,8.48242972 C0.0152564136,8.65570333 0.0101452382,8.82979664 0.0101452382,9.00466146 C0.0101452382,10.2180106 0.247935346,11.3954128 0.716933733,12.504224 C1.13773759,13.4991187 1.72740305,14.3994809 2.47105468,15.1842629 C3.00616075,14.3201853 4.25492649,12.5226435 6.21650801,10.9617828 Z" id="Shape"></path><path d="M12.1420697,17.2973956 C12.0212098,14.6832956 11.3781181,12.2581403 10.5612465,10.1706117 C9.3675223,10.5766366 8.21811103,11.2177513 7.11720768,12.093739 C5.12618866,13.6780339 3.92740153,15.5562455 3.56730491,16.1680915 C4.16131004,16.6197071 4.80794581,16.9949443 5.50065445,17.2879448 C6.60946564,17.756919 7.78689193,17.9947092 9.00021699,17.9947092 C10.0877156,17.9947092 11.1463553,17.8035223 12.1526296,17.4262117 C12.1526778,17.4188824 12.1374889,17.3147784 12.1420697,17.2973956 Z" id="Shape"></path></g></g></g></svg>