<?xml version="1.0" encoding="UTF-8" standalone="no"?>
<svg width="23px" height="18px" viewBox="0 0 23 18" version="1.1" xmlns="http://www.w3.org/2000/svg" xmlns:xlink="http://www.w3.org/1999/xlink"><desc>Created with Sketch.</desc><defs></defs><g id="Page-2" stroke="none" stroke-width="1" fill="none" fill-rule="evenodd"><g id="首页" transform="translate(-1447.000000, -2983.000000)" fill-rule="nonzero" fill="#7f8fac"><g id="Group-89" transform="translate(0.000000, 2044.000000)"><g id="Group-76" transform="translate(0.000000, 745.000000)"><g id="Group-62"><g id="Group-47" transform="translate(409.000000, 60.000000)"><g id="Group-20" transform="translate(999.000000, 134.000000)"><g id="微信" transform="translate(39.000000, 0.000000)"><g id="Group"><path d="M14.9427146,5.45459206 C15.1958406,5.45459206 15.4458118,5.47318967 15.6944854,5.50097157 C15.0190671,2.35512761 11.6560201,0.0181648094 7.81694657,0.0181648094 C3.52532983,0.0181648094 0.00945054696,2.94340714 0.00945054696,6.65794079 C0.00945054696,8.80208388 1.17906114,10.5627755 3.13395004,11.9283635 L2.35312411,14.2770038 L5.08184232,12.9082866 C6.05898147,13.1017423 6.84230074,13.3002355 7.81692111,13.3002355 C8.0618038,13.3002355 8.30482919,13.2882526 8.5459464,13.2693243 C8.39319049,12.7473194 8.30482919,12.2006873 8.30482919,11.6336004 C8.30488008,8.22263248 11.2337279,5.45459206 14.9427146,5.45459206 Z M10.7444968,3.3378747 C11.3322152,3.3378747 11.7216359,3.72448091 11.7216359,4.31209894 C11.7216359,4.89724919 11.3321898,5.28917263 10.7444968,5.28917263 C10.159348,5.28917263 9.57234195,4.89722375 9.57234195,4.31209894 C9.57236741,3.72448091 10.1593735,3.3378747 10.7444968,3.3378747 Z M5.28072524,5.28919807 C4.69555103,5.28919807 4.10475406,4.89724919 4.10475406,4.31212438 C4.10475406,3.72450635 4.69557646,3.33790014 5.28072524,3.33790014 C5.86584855,3.33790014 6.25532015,3.72450635 6.25532015,4.31212438 C6.25532015,4.89724919 5.86584855,5.28919807 5.28072524,5.28919807 Z" id="Shape"></path><path d="M22.0678466,11.5395693 C22.0678466,8.41832707 18.9446447,5.87399211 15.4363472,5.87399211 C11.7216614,5.87399211 8.79596843,8.41832707 8.79596843,11.5395693 C8.79596843,14.6664595 11.7216614,17.2050701 15.4363472,17.2050701 C16.2139929,17.2050701 16.9986097,17.0087395 17.7794102,16.8131212 L19.9205117,17.9858641 L19.3334548,16.0348715 C20.9007803,14.8592537 22.0678466,13.3002355 22.0678466,11.5395693 Z M13.283873,10.5627755 C12.8950629,10.5627755 12.5024364,10.1761947 12.5024364,9.78170166 C12.5024364,9.39257677 12.8950629,9.00090773 13.283873,9.00090773 C13.8740848,9.00090773 14.2610121,9.3926022 14.2610121,9.78170166 C14.2610121,10.1761947 13.8740848,10.5627755 13.283873,10.5627755 Z M17.5780339,10.5627755 C17.1917172,10.5627755 16.8022965,10.1761947 16.8022965,9.78170166 C16.8022965,9.39257677 17.1917426,9.00090773 17.5780339,9.00090773 C18.1631827,9.00090773 18.5551222,9.3926022 18.5551222,9.78170166 C18.5551476,10.1761947 18.1631827,10.5627755 17.5780339,10.5627755 Z" id="Shape"></path></g></g></g></g></g></g></g></g></g></svg>