<?xml version="1.0" encoding="UTF-8" standalone="no"?>
<svg width="26px" height="20px" viewBox="0 0 26 20" version="1.1" xmlns="http://www.w3.org/2000/svg" xmlns:xlink="http://www.w3.org/1999/xlink">
    <!-- Generator: Sketch 49 (51002) - http://www.bohemiancoding.com/sketch -->
    <title>微信 icon</title>
    <desc>Created with Sketch.</desc>
    <defs></defs>
    <g id="Page-1" stroke="none" stroke-width="1" fill="none" fill-rule="evenodd">
        <g id="控件特殊状态／控件" transform="translate(-771.000000, -484.000000)" fill="#CDD3DC" fill-rule="nonzero">
            <g id="微信-icon" transform="translate(771.000000, 484.000000)">
                <path d="M17.3249539,6.03604692 C17.6193021,6.03604692 17.9088512,6.05747849 18.2,6.08809501 C17.4161378,2.59475007 13.5144238,0 9.05920717,0 C4.07928276,0 0,3.24688195 0,7.37245802 C0,9.75289246 1.35656148,11.7077573 3.62496264,13.2263367 L2.71952184,15.8333333 L5.88696493,14.3147539 C7.01956579,14.5275388 7.92820603,14.7479777 9.05920717,14.7479777 C9.34395711,14.7479777 9.6255076,14.7357311 9.90385866,14.7158304 C9.7278896,14.1356473 9.62390788,13.5294402 9.62390788,12.8972091 C9.6255076,9.10994553 13.0233102,6.03604692 17.3249539,6.03604692 Z M12.45541,3.68622901 C13.1400897,3.68622901 13.5896106,4.11639112 13.5896106,4.76852299 C13.5896106,5.41759322 13.1400897,5.8523478 12.45541,5.8523478 C11.778729,5.8523478 11.0972488,5.41759322 11.0972488,4.76852299 C11.0972488,4.11486029 11.7771293,3.68622901 12.45541,3.68622901 Z M6.11572471,5.8523478 C5.43584425,5.8523478 4.75116463,5.41759322 4.75116463,4.76852299 C4.75116463,4.11639112 5.43584425,3.68622901 6.11572471,3.68622901 C6.79560517,3.68622901 7.24672585,4.11486029 7.24672585,4.76852299 C7.24672585,5.41759322 6.79560517,5.8523478 6.11572471,5.8523478 Z" id="Shape"></path>
                <path d="M26,12.901635 C26,9.46625697 22.3280773,6.66666667 18.2040511,6.66666667 C13.8369586,6.66666667 10.4,9.46777436 10.4,12.901635 C10.4,16.3461174 13.838579,19.1366033 18.2040511,19.1366033 C19.1179807,19.1366033 20.0400125,18.9226509 20.9571829,18.7071811 L23.4737301,20 L22.7834216,17.8513713 C24.6258648,16.5555176 26,14.839346 26,12.901635 Z M15.6729199,11.8258033 C15.2175756,11.8258033 14.7557495,11.4009332 14.7557495,10.9669588 C14.7557495,10.5390539 15.2175756,10.1081143 15.6729199,10.1081143 C16.3697102,10.1081143 16.8218136,10.5390539 16.8218136,10.9669588 C16.8218136,11.4009332 16.3697102,11.8258033 15.6729199,11.8258033 Z M20.7205983,11.8258033 C20.2684949,11.8258033 19.8082892,11.4009332 19.8082892,10.9669588 C19.8082892,10.5390539 20.2668744,10.1081143 20.7205983,10.1081143 C21.4109068,10.1081143 21.8694921,10.5390539 21.8694921,10.9669588 C21.8694921,11.4009332 21.4109068,11.8258033 20.7205983,11.8258033 Z" id="Shape"></path>
            </g>
        </g>
    </g>
</svg>