<?xml version="1.0" encoding="UTF-8" standalone="no"?>
<svg width="26px" height="21px" viewBox="0 0 26 21" version="1.1" xmlns="http://www.w3.org/2000/svg" xmlns:xlink="http://www.w3.org/1999/xlink">
    <!-- Generator: Sketch 49 (51002) - http://www.bohemiancoding.com/sketch -->
    <title>微博 icon</title>
    <desc>Created with Sketch.</desc>
    <defs></defs>
    <g id="Page-1" stroke="none" stroke-width="1" fill="none" fill-rule="evenodd">
        <g id="控件特殊状态／控件" transform="translate(-771.000000, -534.000000)" fill="#CDD3DC" fill-rule="nonzero">
            <g id="微博-icon" transform="translate(771.000000, 534.000000)">
                <path d="M19.2574825,10.1338298 C18.2468692,9.93542001 18.7389849,9.39343423 18.7389849,9.39343423 C18.7389849,9.39343423 19.727709,7.75824486 18.5411982,6.56807806 C17.0737845,5.09604153 13.5015838,6.75338255 13.5015838,6.75338255 C12.1392541,7.17633308 12.4996948,6.55940311 12.6929103,5.51034363 C12.6929103,4.27186766 12.2711118,2.17844431 8.63742275,3.41243689 C5.00822648,4.65980002 1.89287832,9.01873982 1.89287832,9.01873982 C-0.273214201,11.9143976 0.0124427319,14.1533851 0.0124427319,14.1533851 C0.552777372,19.0986936 5.79472341,20.4561783 9.87220469,20.7779475 C14.1606897,21.1130343 19.951747,19.2969707 21.7047915,15.5594443 C23.462381,11.8174079 20.2724319,10.3365903 19.2574825,10.1338298 Z M10.1884491,19.3851529 C5.93076049,19.5834565 2.48610756,17.445889 2.48610756,14.5986465 C2.48610756,11.7469206 5.93076049,9.46384201 10.1884491,9.26540569 C14.4505782,9.06712856 17.8997761,10.8300812 17.8997761,13.6728934 C17.89975,16.5158383 14.4505782,19.1911999 10.1884491,19.3851529 Z M9.34051605,11.1387982 C5.05644545,11.6411763 5.55292328,15.6608909 5.55292328,15.6608909 C5.55292328,15.6608909 5.50906648,16.9346503 6.69980876,17.582566 C9.20426999,18.9445076 11.7877989,18.1202276 13.0884052,16.4321661 C14.3933998,14.7485349 13.6290272,10.6406117 9.34051605,11.1387982 Z M8.25963779,16.7847619 C7.45992371,16.8772682 6.81406108,16.4143917 6.81406108,15.744457 C6.81406108,15.0789791 7.38513988,14.3781647 8.18485396,14.2944659 C9.10328702,14.2063104 9.70077395,14.7352704 9.70077395,15.4095559 C9.7052145,16.075193 9.05491134,16.692229 8.25963779,16.7847619 Z M10.7860927,14.6294996 C10.5136529,14.8321275 10.1798292,14.8057843 10.0390643,14.5590654 C9.8898101,14.3208622 9.94683179,13.9417905 10.2192716,13.7435664 C10.5356466,13.5054694 10.8651603,13.5761159 11.0101046,13.8140272 C11.1508696,14.0520447 11.0497299,14.4177989 10.7860927,14.6294996 Z M21.3445074,8.39289613 C21.6915744,8.39289613 21.9816196,8.13721044 22.0344097,7.80230938 C22.038798,7.77578046 22.0430035,7.75378799 22.0430035,7.72725908 C22.56602,3.01569691 18.189743,3.82673896 18.189743,3.82673896 C17.8031031,3.82673896 17.4910903,4.13959447 17.4910903,4.5363079 C17.4910903,4.92424026 17.8031031,5.23709578 18.189743,5.23709578 C21.3313165,4.54063212 20.6415448,7.6919491 20.6415448,7.6919491 C20.6372087,8.07988147 20.9535054,8.39289613 21.3445074,8.39289613 Z M20.8348909,0.16842786 C19.3233853,-0.18854524 17.7635301,0.119986061 17.3285406,0.203552135 C17.2933298,0.208035529 17.2626901,0.239021287 17.2319198,0.243318982 C17.2187288,0.247802376 17.2055378,0.260881133 17.2055378,0.260881133 C16.7750411,0.384399779 16.4630022,0.780954027 16.4630022,1.25263816 C16.4630022,1.81234525 16.9154404,2.27506262 17.4823137,2.27506262 C17.4823137,2.27506262 18.0315294,2.2001715 18.4051351,2.05473997 C18.774039,1.90501077 21.9112502,1.94464496 23.4665865,4.56262459 C24.3148852,6.47549213 23.8402182,7.75373495 23.778756,7.96081967 C23.778756,7.96081967 23.5765811,8.45897967 23.5765811,8.9480933 C23.5765811,9.51228378 24.0292021,9.86936299 24.5958926,9.86936299 C25.0661191,9.86936299 25.4615617,9.80325293 25.5757879,9.00550186 L25.5801762,9.00550186 C27.2586198,3.42119143 23.5413964,0.798728397 20.8348909,0.16842786 Z" id="Shape"></path>
            </g>
        </g>
    </g>
</svg>