<?xml version="1.0" encoding="UTF-8" standalone="no"?>
<svg width="23px" height="18px" viewBox="0 0 23 18" version="1.1" xmlns="http://www.w3.org/2000/svg" xmlns:xlink="http://www.w3.org/1999/xlink"><desc>Created with Sketch.</desc><defs></defs><g id="Page-2" stroke="none" stroke-width="1" fill="none" fill-rule="evenodd"><g id="首页" transform="translate(-1490.000000, -2983.000000)" fill-rule="nonzero" fill="#7f8fac"><g id="Group-89" transform="translate(0.000000, 2044.000000)"><g id="Group-76" transform="translate(0.000000, 745.000000)"><g id="Group-62"><g id="Group-47" transform="translate(409.000000, 60.000000)"><g id="Group-20" transform="translate(999.000000, 134.000000)"><g id="微博态度" transform="translate(82.000000, 0.000000)"><g id="Group"><path d="M16.6243473,8.76228598 C15.7517485,8.59244273 16.1763438,8.12131255 16.1763438,8.12131255 C16.1763438,8.12131255 17.0302161,6.70976398 16.0072936,5.6834902 C14.7388544,4.412416 11.6571934,5.84524933 11.6571934,5.84524933 C10.4800331,6.21138828 10.7925764,5.67814343 10.9588893,4.77054758 C10.9588893,3.7013461 10.5933387,1.89155233 7.45810758,2.96054915 C4.32617663,4.0352509 1.63636513,7.8005828 1.63636513,7.8005828 C-0.23372695,10.3025921 0.014475975,12.2364617 0.014475975,12.2364617 C0.481231525,16.5055928 5.00577988,17.6773807 8.52469965,17.9548246 C12.2267401,18.2460064 17.2240815,16.6753081 18.738677,13.4485679 C20.2540143,10.2165832 17.5003997,8.93742483 16.6243473,8.76228598 L16.6243473,8.76228598 Z M8.79909915,16.7510328 C5.1230763,16.9231785 2.15223933,15.0754712 2.15223933,12.6163641 C2.15223933,10.1546731 5.12305073,8.18048523 8.79909915,8.0107443 C12.47635,7.84090105 15.45325,9.36007585 15.45325,11.8167526 C15.4532245,14.2755016 12.4762477,16.5835943 8.79909915,16.7510328 L8.79909915,16.7510328 Z" id="Shape"></path><path d="M8.0651328,9.63219858 C4.3691299,10.0659269 4.7957974,13.5373653 4.7957974,13.5373653 C4.7957974,13.5373653 4.75821648,14.6366008 5.78720203,15.1964772 C7.94985735,16.3710025 10.1768275,15.6598047 11.302362,14.2032051 C12.4278964,12.7458124 11.767864,9.20141225 8.0651328,9.63219858 L8.0651328,9.63219858 Z M7.13277293,14.5044408 C6.4432692,14.5855378 5.8864883,14.186781 5.8864883,13.6077176 C5.8864883,13.0312892 6.3808731,12.4277944 7.07109315,12.3554978 C7.86397638,12.2798754 8.38041343,12.7378305 8.38041343,13.3168684 C8.38041343,13.8931944 7.8210231,14.4261834 7.13277293,14.5044408 L7.13277293,14.5044408 Z M9.31221048,12.6433282 C9.07805243,12.8184671 8.79096388,12.7942147 8.66750198,12.5840532 C8.53874448,12.3793408 8.5870701,12.050834 8.82319803,11.8783301 C9.09677893,11.673848 9.38189763,11.732816 9.5053851,11.9378354 C9.6294354,12.1476899 9.5409194,12.4627659 9.31221048,12.6433282 L9.31221048,12.6433282 Z" id="Shape"></path><path d="M18.4248033,7.25922825 C18.7225854,7.25922825 18.9761863,7.03829645 19.0184744,6.75010782 C19.0238212,6.7286184 19.0264562,6.70978955 19.0264562,6.68556277 C19.4779133,2.61579727 15.7001227,3.31627595 15.7001227,3.31627595 C15.3647341,3.31627595 15.0962697,3.58839865 15.0962697,3.92765025 C15.0962697,4.26155507 15.364734,4.53354985 15.7001227,4.53354985 C18.4140842,3.9330226 17.8151431,6.65335422 17.8151431,6.65335422 C17.8150152,6.98986847 18.0880333,7.25922825 18.4248033,7.25922825 L18.4248033,7.25922825 Z" id="Shape"></path><path d="M17.9847561,0.155794775 C16.6780452,-0.15081335 15.3351093,0.1134299 14.9588396,0.1857009 C14.9299568,0.188463825 14.9024299,0.215965175 14.8756704,0.221363125 C14.8628791,0.224100475 14.8548973,0.237582525 14.8548973,0.237582525 C14.4831813,0.3427784 14.2122099,0.68709535 14.2122099,1.09398747 C14.2122099,1.5789067 14.6039315,1.97768912 15.0936347,1.97768912 C15.0936347,1.97768912 15.5684999,1.91383482 15.8911995,1.78737975 C16.2110594,1.65818735 18.9157345,1.69118897 20.2600518,3.95346315 C20.9924832,5.60446537 20.5819328,6.7094314 20.5309977,6.88697502 C20.5309977,6.88697502 20.3565496,7.31599615 20.3565496,7.7383402 C20.3565496,8.22599677 20.7482712,8.53224672 21.2339835,8.53224672 C21.6404407,8.53224672 21.9811761,8.47673237 22.0811275,7.78814962 L22.0864999,7.78814962 C23.5294895,2.96760995 20.3217316,0.7024961 17.9847561,0.155794775 L17.9847561,0.155794775 Z" id="Shape"></path></g></g></g></g></g></g></g></g></g></svg>